<svg xmlns="http://www.w3.org/2000/svg" width="100" height="122" viewBox="0 0 100 122">
    <g fill="none" fill-rule="evenodd">
        <ellipse cx="50" cy="118" fill="#D7E8FC" rx="37" ry="4"/>
        <path fill="#003F7A" d="M50 100C22.386 100 0 77.614 0 50S22.386 0 50 0s50 22.386 50 50-22.386 50-50 50zm0-4c25.405 0 46-20.595 46-46S75.405 4 50 4 4 24.595 4 50s20.595 46 46 46zm-1.5-37.8c-1.2-1.133-1.8-2.55-1.8-4.25 0-1.367.417-2.592 1.25-3.675.833-1.083 1.758-1.925 2.775-2.525A13.898 13.898 0 0 0 53.5 45.6c.833-.833 1.25-1.717 1.25-2.65 0-1.033-.408-1.892-1.225-2.575-.817-.683-1.992-1.025-3.525-1.025-2.733 0-5.05 1.167-6.95 3.5L39.7 39.1c2.7-3.3 6.333-4.95 10.9-4.95 3.1 0 5.567.733 7.4 2.2 1.833 1.467 2.75 3.35 2.75 5.65 0 1.367-.308 2.592-.925 3.675-.617 1.083-1.367 1.967-2.25 2.65a61.59 61.59 0 0 1-2.625 1.925 11.69 11.69 0 0 0-2.225 1.975c-.617.717-.925 1.475-.925 2.275 0 .867.367 1.617 1.1 2.25l-4.4 1.45zm4.25 9.35c-.667.667-1.483 1-2.45 1a3.372 3.372 0 0 1-2.475-1.025A3.372 3.372 0 0 1 46.8 65.05c0-.967.342-1.792 1.025-2.475A3.372 3.372 0 0 1 50.3 61.55c.967 0 1.792.342 2.475 1.025A3.372 3.372 0 0 1 53.8 65.05c0 .967-.35 1.8-1.05 2.5z"/>
    </g>
</svg>
