<svg xmlns="http://www.w3.org/2000/svg" width="30" height="30" viewBox="0 0 30 30">
    <path fill="#e41d4b" fill-rule="evenodd" d="M5 0h20a5 5 0 0 1 5 5v20a5 5 0 0 1-5 5H5a5 5 0 0 1-5-5V5a5 5 0 0 1 5-5zm0 1.875A3.125 3.125 0 0 0 1.875 5v20c0 1.726 1.4 3.125 3.125 3.125h20c1.726 0 3.125-1.4 3.125-3.125V5c0-1.726-1.4-3.125-3.125-3.125H5zm7.854 19.156a2.376 2.376 0 0 1-1.886-1.007l-3.03-4.188a1.082 1.082 0 1 1 1.753-1.27l3.046 4.21c.037.053.104.089.18.091a.23.23 0 0 0 .187-.082l.102-.114 8.465-8.16a1.082 1.082 0 1 1 1.503 1.558l-8.419 8.116a2.395 2.395 0 0 1-1.901.846z"/>
</svg>